<svg xmlns="http://www.w3.org/2000/svg" viewBox="0 12.0600004196167 103.08000183105469 35.54999923706055" data-asc="0.9423828125" width="103.08000183105469" height="35.54999923706055"><defs/><g fill="#ff8647"><g transform="translate(0, 0)"><path d="M0 13.77Q3.42 13.87 5.69 13.89Q7.96 13.92 9.38 13.92L11.96 13.92L26.51 13.92Q26.61 14.89 26.68 15.80Q26.76 16.70 26.76 17.38Q26.76 18.21 26.71 18.90Q26.66 19.58 26.56 20.36Q26.46 21.04 26.37 21.83Q26.27 22.61 26.03 23.44Q25.34 20.80 24.19 19.43Q23.05 18.07 21.88 17.43Q20.51 16.70 18.99 16.65Q16.99 16.75 15.87 16.99Q14.75 17.24 14.11 17.68Q13.48 18.12 13.16 18.68Q12.84 19.24 12.50 19.92Q12.21 20.51 11.96 21.73Q11.72 22.75 11.50 24.51Q11.28 26.27 11.04 29.05Q12.35 28.66 13.16 28.32Q13.96 27.98 14.45 27.73Q14.99 27.44 15.23 27.20Q15.43 26.90 15.82 26.12Q16.11 25.44 16.63 24.27Q17.14 23.10 17.87 21.04Q17.97 23.29 17.97 24.78Q17.97 26.27 18.02 27.20Q18.02 28.27 18.07 28.91L18.07 30.76Q18.07 31.79 18.09 33.52Q18.12 35.25 18.21 37.89Q17.63 36.08 17.16 35.03Q16.70 33.98 16.36 33.45Q15.97 32.81 15.67 32.57Q15.33 32.47 14.75 32.37Q14.21 32.32 13.40 32.32Q12.60 32.32 11.38 32.57Q11.23 35.25 11.35 36.89Q11.47 38.53 11.72 39.40Q11.96 40.43 12.30 40.87Q12.74 41.31 14.06 41.58Q15.38 41.85 17.07 41.77Q18.75 41.70 20.51 41.21Q22.27 40.72 23.63 39.60Q24.66 38.67 25.83 37.26Q26.81 36.04 28.00 34.18Q29.20 32.32 30.37 29.69Q30.18 31.88 30.10 33.33Q30.03 34.77 29.93 35.64Q29.83 36.67 29.79 37.21Q29.79 37.79 29.64 38.87Q29.54 39.79 29.32 41.38Q29.10 42.97 28.76 45.41Q26.46 45.46 24.41 45.48Q22.36 45.51 20.80 45.56Q18.95 45.61 17.38 45.65Q15.77 45.65 13.82 45.80Q12.11 45.90 9.79 46.09Q7.47 46.29 4.69 46.63Q4.93 43.31 5.05 40.36Q5.18 37.40 5.22 35.16Q5.27 32.52 5.22 30.27Q5.47 24.66 5.03 21.19Q4.59 17.72 4.00 16.75Q3.71 16.41 3.17 15.92Q2.73 15.53 1.95 14.99Q1.17 14.45 0 13.77ZM31.64 12.11Q33.20 12.16 34.38 12.13Q35.55 12.11 36.28 12.11L37.70 12.11Q38.23 12.06 39.01 12.06Q39.70 12.06 40.67 12.06Q41.65 12.06 42.92 12.11Q43.31 13.48 43.82 14.77Q44.34 16.06 44.73 17.09Q45.21 18.31 45.70 19.38Q46.19 20.46 46.88 21.97Q47.46 23.24 48.29 25.07Q49.12 26.90 50.24 29.25Q50.78 27.73 51.25 26.46Q51.71 25.20 52.05 24.27Q52.44 23.19 52.69 22.31Q52.93 21.44 53.22 20.17Q53.47 19.09 53.78 17.58Q54.10 16.06 54.44 14.06Q55.86 14.06 56.98 14.06Q58.11 14.06 58.94 14.01Q59.86 14.01 60.60 13.96Q61.38 13.96 62.70 13.87Q63.82 13.77 65.70 13.70Q67.58 13.62 70.36 13.48Q69.34 14.21 68.73 14.92Q68.12 15.63 67.77 16.16Q67.38 16.80 67.29 17.38Q67.19 17.87 67.11 19.63Q67.04 21.39 66.97 23.80Q66.89 26.22 66.87 28.96Q66.85 31.69 66.89 34.13Q66.94 36.57 67.07 38.35Q67.19 40.14 67.43 40.63Q67.77 41.21 68.36 41.99Q68.90 42.68 69.75 43.55Q70.61 44.43 72.02 45.51Q69.78 45.61 68.29 45.65Q66.80 45.70 65.82 45.75Q64.70 45.80 64.01 45.80Q63.28 45.80 62.01 45.85Q60.89 45.90 59.03 45.97Q57.18 46.04 54.25 46.19Q54.93 45.41 55.52 44.63Q56.10 43.85 56.49 43.21Q56.98 42.48 57.32 41.80Q57.67 40.87 57.86 38.43Q58.06 36.33 58.15 32.40Q58.25 28.47 58.15 21.83Q57.23 23.34 56.52 24.83Q55.81 26.32 55.27 27.54Q54.69 28.96 54.20 30.27Q53.71 31.64 53.17 33.30Q52.69 34.72 52.03 36.67Q51.37 38.62 50.54 40.97L48.68 41.06Q48.29 39.11 47.90 37.52Q47.51 35.94 47.12 34.81Q46.68 33.50 46.24 32.47Q45.75 31.45 45.17 30.18Q44.63 29.10 43.87 27.64Q43.12 26.17 42.14 24.37Q41.65 29.35 41.55 32.45Q41.46 35.55 41.55 37.26Q41.65 39.31 41.85 40.23Q42.14 41.06 42.77 42.09Q43.31 42.97 44.26 44.17Q45.21 45.36 46.73 46.83Q45.65 46.83 44.48 46.83Q43.31 46.83 42.33 46.88Q41.16 46.92 40.04 46.92Q38.87 46.97 37.30 47.07Q35.94 47.17 34.03 47.27Q32.13 47.36 29.64 47.61Q30.71 46.92 31.40 46.26Q32.08 45.61 32.47 45.07Q32.96 44.43 33.20 43.80Q33.35 43.41 33.47 42.09Q33.59 40.77 33.72 38.87Q33.84 36.96 33.91 34.62Q33.98 32.28 34.06 29.86Q34.13 27.44 34.18 25.12Q34.23 22.80 34.25 20.92Q34.28 19.04 34.28 17.77Q34.28 16.50 34.28 16.16Q34.13 15.43 33.84 14.70Q33.59 14.06 33.06 13.38Q32.52 12.70 31.64 12.11ZM71.29 12.79Q72.75 13.09 73.78 13.23Q74.80 13.38 75.49 13.48Q76.27 13.57 76.81 13.57Q77.34 13.57 78.27 13.53Q79.10 13.48 80.37 13.45Q81.64 13.43 83.59 13.33Q82.47 14.11 81.79 14.65Q81.10 15.19 80.76 15.58Q80.32 16.02 80.22 16.31Q80.13 16.50 80.03 17.75Q79.93 18.99 79.86 20.87Q79.79 22.75 79.83 25.07Q79.88 27.39 80.10 29.79Q80.32 32.18 80.76 34.40Q81.20 36.62 81.96 38.28Q82.71 39.94 83.81 40.87Q84.91 41.80 86.47 41.55Q88.53 41.26 89.79 39.55Q91.06 37.84 91.72 35.40Q92.38 32.96 92.55 30.15Q92.72 27.34 92.60 24.88Q92.48 22.41 92.19 20.61Q91.89 18.80 91.65 18.36Q91.36 17.87 90.87 17.24Q90.48 16.70 89.84 15.99Q89.21 15.28 88.38 14.45Q89.89 14.50 91.11 14.53Q92.33 14.55 93.16 14.60Q94.14 14.65 94.92 14.70Q95.70 14.75 96.88 14.84Q97.85 14.94 99.39 15.04Q100.93 15.14 103.08 15.33Q102.25 15.53 101.73 15.87Q101.22 16.21 100.93 16.60Q100.59 17.04 100.44 17.48Q100.29 17.87 100.22 19.80Q100.15 21.73 100.02 24.44Q99.90 27.15 99.66 30.30Q99.41 33.45 98.90 36.28Q98.39 39.11 97.58 41.31Q96.78 43.51 95.51 44.34Q93.65 45.56 91.60 46.07Q89.55 46.58 87.45 46.61Q85.35 46.63 83.33 46.26Q81.30 45.90 79.44 45.36Q77.54 44.78 76.29 42.72Q75.05 40.67 74.34 37.87Q73.63 35.06 73.32 31.81Q73.00 28.56 72.92 25.54Q72.85 22.51 72.92 20.04Q73.00 17.58 73.05 16.31Q73.05 15.67 72.85 15.09Q72.71 14.55 72.34 13.94Q71.97 13.33 71.29 12.79Z"/></g></g></svg>